<svg width="23" height="17" viewBox="0 0 23 17" fill="none" xmlns="http://www.w3.org/2000/svg">
<path d="M0.867925 3H22.1321C22.6112 3 23 2.328 23 1.5C23 0.672 22.6112 0 22.1321 0H0.867925C0.38883 0 0 0.672 0 1.5C0 2.328 0.38883 3 0.867925 3Z" fill="white"/>
<path d="M0.867925 10H22.1321C22.6112 10 23 9.328 23 8.5C23 7.672 22.6112 7 22.1321 7H0.867925C0.38883 7 0 7.672 0 8.5C0 9.328 0.38883 10 0.867925 10Z" fill="white"/>
<path d="M0.867925 17H22.1321C22.6112 17 23 16.328 23 15.5C23 14.672 22.6112 14 22.1321 14H0.867925C0.38883 14 0 14.672 0 15.5C0 16.328 0.38883 17 0.867925 17Z" fill="white"/>
</svg>
